# xmcd
# 
# Track frame offsets:
#     150
#     13444
#     28501
#     41745
#     54880
#     68185
#     81141
#     95137
#     108565
#     120481
#     134422
#     148546
#     164451
#     176989
#     188567
#     199609
#     212099
#     225638
#     238535
#     251581
#     267232
#     279899
#     291711
#     303730
#     318610
#     331714
# 
# Disc length: 4579
# 
# Revision: 2
# Processed by: cddbd v1.5.2PL0 Copyright (c) Steve Scherf et al.
# Submitted via: fre:ac v1.0.27
# 
DISCID=8811e11a
DTITLE=Kenny Clarke - Epistrophy
DYEAR=1941
DGENRE=Jazz
TTITLE0=I Found A New Baby
TTITLE1=Once In A While
TTITLE2=You're A Sweetheart
TTITLE3=Sweet Sue
TTITLE4=Epistrophy
TTITLE5=52nd Street Theme
TTITLE6=Oop-Bop-Sh'bam
TTITLE7=Rue Chaptal (Royal Roost)
TTITLE8=Confirmation
TTITLE9=A La Colette (Cheryl)
TTITLE10=Jumpin' there (Listen Here)
TTITLE11=Jay Mac
TTITLE12=Algerian Cynicism
TTITLE13=Laurenzology
TTITLE14=Doria
TTITLE15=I'll Tell You In Any Minute
TTITLE16=Working eyes
TTITLE17=Stuffy
TTITLE18=The Man I Love
TTITLE19=I Surrender Dear
TTITLE20=Love In The Sun
TTITLE21=Iambic Pentameter
TTITLE22=Assy Panassy
TTITLE23=Robbin's Nest
TTITLE24=I'll Get You Let
TTITLE25=Be Good, Girl
EXTD=YEAR: 1941
EXTT0=
EXTT1=
EXTT2=
EXTT3=
EXTT4=
EXTT5=
EXTT6=
EXTT7=
EXTT8=
EXTT9=
EXTT10=
EXTT11=
EXTT12=
EXTT13=
EXTT14=
EXTT15=
EXTT16=
EXTT17=
EXTT18=
EXTT19=
EXTT20=
EXTT21=
EXTT22=
EXTT23=
EXTT24=
EXTT25=
PLAYORDER=
